<svg xmlns="http://www.w3.org/2000/svg" viewBox="0 0 700 300" width="700" height="300">
  <style>text{font-family:system-ui,Segoe UI,Helvetica,Arial,sans-serif;font-size:11px;fill:#333}.title{font-size:13px;font-weight:600}.axis{stroke:#888;stroke-width:1}.grid{stroke:#e5e5e5;stroke-width:1}.tgt{stroke:#999;stroke-width:1;stroke-dasharray:4 3}.tick{fill:#555;font-size:10px}</style>
  <text class="title" x="60" y="20">s5: N=15, P=30, 30 rpm -- fleet footprint (active pods per window)</text>
  <line class="grid" x1="60" y1="255.0" x2="680" y2="255.0"/>
  <text class="tick" x="54" y="258.0" text-anchor="end">0</text>
  <line class="grid" x1="60" y1="212.0" x2="680" y2="212.0"/>
  <text class="tick" x="54" y="215.0" text-anchor="end">8</text>
  <line class="grid" x1="60" y1="169.0" x2="680" y2="169.0"/>
  <text class="tick" x="54" y="172.0" text-anchor="end">16</text>
  <line class="grid" x1="60" y1="126.0" x2="680" y2="126.0"/>
  <text class="tick" x="54" y="129.0" text-anchor="end">24</text>
  <line class="grid" x1="60" y1="83.0" x2="680" y2="83.0"/>
  <text class="tick" x="54" y="86.0" text-anchor="end">32</text>
  <line class="grid" x1="60" y1="40.0" x2="680" y2="40.0"/>
  <text class="tick" x="54" y="43.0" text-anchor="end">40</text>
  <line class="grid" x1="60.0" y1="40" x2="60.0" y2="255"/>
  <text class="tick" x="60.0" y="269" text-anchor="middle">0m</text>
  <line class="grid" x1="163.3" y1="40" x2="163.3" y2="255"/>
  <text class="tick" x="163.3" y="269" text-anchor="middle">15m</text>
  <line class="grid" x1="266.7" y1="40" x2="266.7" y2="255"/>
  <text class="tick" x="266.7" y="269" text-anchor="middle">30m</text>
  <line class="grid" x1="370.0" y1="40" x2="370.0" y2="255"/>
  <text class="tick" x="370.0" y="269" text-anchor="middle">45m</text>
  <line class="grid" x1="473.3" y1="40" x2="473.3" y2="255"/>
  <text class="tick" x="473.3" y="269" text-anchor="middle">60m</text>
  <line class="grid" x1="576.7" y1="40" x2="576.7" y2="255"/>
  <text class="tick" x="576.7" y="269" text-anchor="middle">75m</text>
  <line class="grid" x1="680.0" y1="40" x2="680.0" y2="255"/>
  <text class="tick" x="680.0" y="269" text-anchor="middle">90m</text>
  <line class="axis" x1="60" y1="255" x2="680" y2="255"/>
  <line class="axis" x1="60" y1="40" x2="60" y2="255"/>
  <text x="370" y="287" text-anchor="middle">time (minutes)</text>
  <text x="14" y="147" transform="rotate(-90 14 147)" text-anchor="middle">active pods (window)</text>
  <circle cx="60.0" cy="255.0" r="3" fill="#d62728"/>
  <circle cx="266.7" cy="93.8" r="3" fill="#d62728"/>
  <circle cx="473.3" cy="93.8" r="3" fill="#d62728"/>
  <circle cx="680.0" cy="93.8" r="3" fill="#d62728"/>
  <polyline fill="none" stroke="#d62728" stroke-width="1.8" points="60.0,255.0 60.0,255.0 60.0,93.8 266.7,93.8 266.7,93.8 473.3,93.8 473.3,93.8 680.0,93.8 "/>
  <circle cx="60.0" cy="255.0" r="3" fill="#1f77b4"/>
  <circle cx="266.7" cy="179.8" r="3" fill="#1f77b4"/>
  <circle cx="473.3" cy="179.8" r="3" fill="#1f77b4"/>
  <circle cx="680.0" cy="179.8" r="3" fill="#1f77b4"/>
  <polyline fill="none" stroke="#1f77b4" stroke-width="1.8" points="60.0,255.0 60.0,255.0 60.0,179.8 266.7,179.8 266.7,179.8 473.3,179.8 473.3,179.8 680.0,179.8 "/>
  <circle cx="60.0" cy="255.0" r="3" fill="#2ca02c"/>
  <circle cx="266.7" cy="179.8" r="3" fill="#2ca02c"/>
  <circle cx="473.3" cy="179.8" r="3" fill="#2ca02c"/>
  <circle cx="680.0" cy="179.8" r="3" fill="#2ca02c"/>
  <polyline fill="none" stroke="#2ca02c" stroke-width="1.8" points="60.0,255.0 60.0,255.0 60.0,179.8 266.7,179.8 266.7,179.8 473.3,179.8 473.3,179.8 680.0,179.8 "/>
  <rect x="460" y="48" width="14" height="3" fill="#d62728"/>
  <text x="480" y="53">baseline</text>
  <rect x="460" y="64" width="14" height="3" fill="#1f77b4"/>
  <text x="480" y="69">central</text>
  <rect x="460" y="80" width="14" height="3" fill="#2ca02c"/>
  <text x="480" y="85">pernode</text>
</svg>
